PathFileType	4	(X/Y/Z)	RBDS010static.trc
DataRate	CameraRate	NumFrames	NumMarkers	Units	OrigDataRate	OrigDataStartFrame	OrigNumFrames
150.000000	150.000000	4	48	mm	150.000000	75	150
Frame#	Time	L.Ankle			L.Ankle.Medial			L.ASIS			L.GTR			L.Heel.Bottom			L.Heel.Lateral			L.Heel.Top			L.HF			L.Iliac.Crest			L.Knee			L.Knee.Medial			L.MT1			L.MT2			L.MT5			L.PSIS			L.Shank.Bottom.Lateral			L.Shank.Bottom.Medial			L.Shank.Top.Lateral			L.Shank.Top.Medial			L.Thigh.Bottom.Lateral			L.Thigh.Bottom.Medial			L.Thigh.Top.Lateral			L.Thigh.Top.Medial			L.TT			R.Ankle			R.Ankle.Medial			R.ASIS			R.GTR			R.Heel.Bottom			R.Heel.Lateral			R.Heel.Top			R.HF			R.Iliac.Crest			R.Knee			R.Knee.Medial			R.MT1			R.MT2			R.MT5			R.PSIS			R.Shank.Bottom.Lateral			R.Shank.Bottom.Medial			R.Shank.Top.Lateral			R.Shank.Top.Medial			R.Thigh.Bottom.Lateral			R.Thigh.Bottom.Medial			R.Thigh.Top.Lateral			R.Thigh.Top.Medial			R.TT			
		X1	Y1	Z1	X2	Y2	Z2	X3	Y3	Z3	X4	Y4	Z4	X5	Y5	Z5	X6	Y6	Z6	X7	Y7	Z7	X8	Y8	Z8	X9	Y9	Z9	X10	Y10	Z10	X11	Y11	Z11	X12	Y12	Z12	X13	Y13	Z13	X14	Y14	Z14	X15	Y15	Z15	X16	Y16	Z16	X17	Y17	Z17	X18	Y18	Z18	X19	Y19	Z19	X20	Y20	Z20	X21	Y21	Z21	X22	Y22	Z22	X23	Y23	Z23	X24	Y24	Z24	X25	Y25	Z25	X26	Y26	Z26	X27	Y27	Z27	X28	Y28	Z28	X29	Y29	Z29	X30	Y30	Z30	X31	Y31	Z31	X32	Y32	Z32	X33	Y33	Z33	X34	Y34	Z34	X35	Y35	Z35	X36	Y36	Z36	X37	Y37	Z37	X38	Y38	Z38	X39	Y39	Z39	X40	Y40	Z40	X41	Y41	Z41	X42	Y42	Z42	X43	Y43	Z43	X44	Y44	Z44	X45	Y45	Z45	X46	Y46	Z46	X47	Y47	Z47	X48	Y48	Z48	

76	0.5	710.4890747070313	102.1498565673828	1038.609252929688	728.4159545898438	118.3258056640625	1118.388549804688	814.0332641601563	981.1009521484375	1090.71240234375	706.096923828125	892.2586669921875	1043.37841796875	637.5494995117188	39.72759246826172	1083.026611328125	666.5565795898438	56.45503234863281	1038.452758789063	647.379150390625	90.35954284667969	1084.292358398438	695.544189453125	448.9443054199219	1029.062255859375	764.9658203125	1065.742309570313	1061.009887695313	692.141845703125	512.3782958984375	1033.236572265625	716.27490234375	495.5903930664063	1157.443603515625	852.00927734375	56.00629806518555	1125.2314453125	864.4450073242188	69.26997375488281	1079.679931640625	829.06494140625	50.93466186523438	1011.225769042969	646.622314453125	1028.848388671875	1165.760498046875	684.1353759765625	171.4816589355469	1034.323852539063	656.0075073242188	170.7737579345703	1080.474731445313	670.0150756835938	249.785400390625	1024.999877929688	641.8590087890625	250.1624450683594	1071.108642578125	694.1710815429688	598.071044921875	1026.097900390625	645.2389526367188	589.537109375	1079.15380859375	675.861328125	706.630615234375	1029.984619140625	631.407470703125	699.3948364257813	1081.615356445313	755.78466796875	430.660400390625	1065.823120117188	706.4970703125	115.8733367919922	1402.689208984375	724.7097778320313	120.2095642089844	1319.991455078125	818.073486328125	977.424560546875	1321.819458007813	716.6547241210938	886.6962890625	1376.932495117188	632.5626831054688	40.60065078735352	1369.119384765625	660.9190063476563	61.59242630004883	1412.278198242188	641.8184204101563	89.19412994384766	1367.435546875	720.0811767578125	445.5726928710938	1394.374267578125	750.6785278320313	1057.970581054688	1359.926513671875	720.2252807617188	510.3627319335938	1389.627563476563	734.8895874023438	490.9595031738281	1266.6806640625	842.477783203125	57.96611022949219	1323.542114257813	859.5647583007813	73.072265625	1374.11376953125	824.270263671875	50.87527084350586	1438.156372070313	648.8609619140625	1028.41796875	1262.49853515625	696.9675903320313	188.2339172363281	1408.3037109375	658.0269775390625	188.2388763427734	1375.047241210938	691.6204223632813	272.9032287597656	1411.924072265625	651.5111083984375	268.6997680664063	1376.357788085938	716.4119262695313	611.338623046875	1396.045776367188	662.5496826171875	603.3720092773438	1345.9482421875	699.8260498046875	719.8226318359375	1392.1982421875	649.5200805664063	713.4827880859375	1345.396728515625	779.9729614257813	436.771240234375	1357.723754882813	
77	0.5066666666666667	710.4867553710938	102.1510696411133	1038.61279296875	728.4244384765625	118.3265380859375	1118.394165039063	813.9978637695313	981.106201171875	1090.720581054688	706.0586547851563	892.2518310546875	1043.392456054688	637.5501098632813	39.72491455078125	1083.032348632813	666.5662231445313	56.44779205322266	1038.45654296875	647.3809204101563	90.36530303955078	1084.298217773438	695.5303344726563	448.935546875	1029.071899414063	764.915771484375	1065.746337890625	1061.02099609375	692.1138916015625	512.3699951171875	1033.24609375	716.2645874023438	495.5700073242188	1157.451782226563	852.004150390625	56.00270080566406	1125.240356445313	864.4414672851563	69.26824188232422	1079.66796875	829.0611572265625	50.94085311889648	1011.224487304688	646.5740356445313	1028.838256835938	1165.763061523438	684.1293334960938	171.4756011962891	1034.331909179688	656.0003051757813	170.7774810791016	1080.48583984375	670.0082397460938	249.7865600585938	1025.001831054688	641.8531494140625	250.158203125	1071.11767578125	694.1395263671875	598.0590209960938	1026.110961914063	645.2133178710938	589.5267333984375	1079.167846679688	675.8308715820313	706.6234130859375	1029.993896484375	631.3722534179688	699.3941650390625	1081.63427734375	755.76904296875	430.64892578125	1065.821044921875	706.4976196289063	115.8713302612305	1402.683227539063	724.6961669921875	120.1905822753906	1319.985595703125	818.031005859375	977.4411010742188	1321.823974609375	716.6231689453125	886.6936645507813	1376.942993164063	632.5650024414063	40.59758377075195	1369.121215820313	660.919189453125	61.59201812744141	1412.28564453125	641.80908203125	89.19561767578125	1367.437255859375	720.0751953125	445.5691223144531	1394.370239257813	750.6323852539063	1057.977661132813	1359.93017578125	720.2149658203125	510.3535461425781	1389.6337890625	734.8649291992188	490.9543762207031	1266.695068359375	842.4727783203125	57.95403289794922	1323.548706054688	859.5712890625	73.06896209716797	1374.093872070313	824.2752685546875	50.86144638061523	1438.1494140625	648.8162231445313	1028.406860351563	1262.503295898438	696.9586181640625	188.2353515625	1408.30615234375	658.0300903320313	188.2329254150391	1375.042358398438	691.614990234375	272.8976135253906	1411.9326171875	651.5234375	268.6916198730469	1376.367309570313	716.3943481445313	611.3291625976563	1396.055541992188	662.5267333984375	603.3643798828125	1345.954345703125	699.7988891601563	719.8278198242188	1392.203002929688	649.4967041015625	713.4750366210938	1345.412231445313	779.9640502929688	436.7669372558594	1357.722900390625	
78	0.5133333333333334	710.4917602539063	102.1438751220703	1038.614624023438	728.414306640625	118.3115386962891	1118.404296875	813.9627075195313	981.1090087890625	1090.721435546875	706.02099609375	892.2440185546875	1043.392211914063	637.5491943359375	39.72822570800781	1083.037109375	666.5729370117188	56.4463996887207	1038.460815429688	647.3848266601563	90.36210632324219	1084.296752929688	695.5098266601563	448.9354553222656	1029.064208984375	764.8779907226563	1065.744018554688	1061.031494140625	692.0963134765625	512.365966796875	1033.25	716.2429809570313	495.5790710449219	1157.466430664063	851.9987182617188	55.99456787109375	1125.239379882813	864.4465942382813	69.26294708251953	1079.681518554688	829.0615844726563	50.93727874755859	1011.230041503906	646.5211791992188	1028.84814453125	1165.77294921875	684.119873046875	171.4678039550781	1034.337768554688	656.0051879882813	170.7649383544922	1080.479248046875	670.0038452148438	249.7770690917969	1025.008911132813	641.8419799804688	250.1536712646484	1071.125854492188	694.1171264648438	598.0580444335938	1026.1181640625	645.1945190429688	589.5175170898438	1079.171997070313	675.8035278320313	706.612548828125	1030.006225585938	631.3363647460938	699.388671875	1081.646362304688	755.732666015625	430.654052734375	1065.835205078125	706.5021362304688	115.8749008178711	1402.69384765625	724.6976318359375	120.2056121826172	1319.990844726563	817.9879150390625	977.4385986328125	1321.83349609375	716.5867919921875	886.6995239257813	1376.9482421875	632.5696411132813	40.58722305297852	1369.113403320313	660.92626953125	61.59686660766602	1412.278198242188	641.8170166015625	89.18905639648438	1367.43310546875	720.0602416992188	445.5672607421875	1394.385009765625	750.58056640625	1057.988403320313	1359.943359375	720.1978759765625	510.3503723144531	1389.636474609375	734.8684692382813	490.9489440917969	1266.705932617188	842.47021484375	57.95484161376953	1323.546020507813	859.5652465820313	73.06333160400391	1374.090576171875	824.28515625	50.86327743530273	1438.145141601563	648.7673950195313	1028.407836914063	1262.522583007813	696.9589233398438	188.2272796630859	1408.305541992188	658.0272216796875	188.2287139892578	1375.052001953125	691.6144409179688	272.8994445800781	1411.937255859375	651.5123291015625	268.6963195800781	1376.36474609375	716.3695068359375	611.33251953125	1396.065551757813	662.5049438476563	603.352783203125	1345.961547851563	699.7645263671875	719.8184814453125	1392.208374023438	649.4752197265625	713.4685668945313	1345.41650390625	779.952392578125	436.7733764648438	1357.73974609375	
79	0.52	710.4903564453125	102.1374740600586	1038.613891601563	728.4207153320313	118.3076934814453	1118.40283203125	813.91552734375	981.1165771484375	1090.726928710938	705.9869995117188	892.2344970703125	1043.397827148438	637.5502319335938	39.7317008972168	1083.036987304688	666.5693969726563	56.44427490234375	1038.458618164063	647.3839721679688	90.35800170898438	1084.301025390625	695.4822998046875	448.92724609375	1029.070434570313	764.8349609375	1065.748779296875	1061.051391601563	692.0737915039063	512.3753662109375	1033.254516601563	716.2298583984375	495.581298828125	1157.47802734375	852.4835815429688	56.25270080566406	1124.884643554688	864.441650390625	69.26837158203125	1079.676025390625	829.0554809570313	50.933349609375	1011.226989746094	646.4678955078125	1028.842041015625	1165.779541015625	684.11865234375	171.4667663574219	1034.336181640625	656.0542602539063	170.8285675048828	1080.479736328125	669.9973754882813	249.7705230712891	1025.013305664063	641.8299560546875	250.144287109375	1071.131713867188	694.0921630859375	598.05322265625	1026.1240234375	645.1641845703125	589.5132446289063	1079.177612304688	675.7764282226563	706.6119384765625	1030.009765625	631.2994995117188	699.3833618164063	1081.654418945313	755.7319946289063	430.6490173339844	1065.830078125	706.4939575195313	115.8624420166016	1402.690063476563	724.6989135742188	120.2058944702148	1320.00146484375	817.9407348632813	977.4388427734375	1321.829833984375	716.5621337890625	886.6959838867188	1376.947143554688	632.5642700195313	40.58483123779297	1369.108032226563	660.91845703125	61.59430694580078	1412.279541015625	641.8090209960938	89.18938446044922	1367.428955078125	720.04150390625	445.5670471191406	1394.388305664063	750.52734375	1057.995849609375	1359.941528320313	720.1780395507813	510.3544311523438	1389.640747070313	734.84814453125	490.9504089355469	1266.709838867188	842.4707641601563	57.95110321044922	1323.538818359375	859.5619506835938	73.07101440429688	1374.097534179688	824.28076171875	50.8653564453125	1438.14892578125	648.71826171875	1028.413696289063	1262.520751953125	696.9616088867188	188.2264709472656	1408.307739257813	658.01416015625	188.2284698486328	1375.049560546875	691.606201171875	272.8994140625	1411.941528320313	651.502197265625	268.6915893554688	1376.3720703125	716.3446044921875	611.3399658203125	1396.0712890625	662.4811401367188	603.3499755859375	1345.97119140625	699.7451782226563	719.82080078125	1392.219970703125	649.4512329101563	713.4617919921875	1345.421997070313	779.9388427734375	436.7778015136719	1357.740844726563	
